# xmcd
#
# Track frame offsets: 
#        150
#        22160
#        44907
#        58370
#        74767
#        93792
#        118775
#        135165
#        161795
#        178762
#        200507
#        239845
#        256060
#
# Disc length: 3730 seconds
#
# Revision: 5
# Processed by: cddbd v1.5.2PL0 Copyright (c) Steve Scherf et al.
# Submitted via: ExactAudioCopyFreeDBPlugin 1.0
#
DISCID=cb0e900d
DTITLE=M-Clan - Un Buen Momento
DYEAR=1995
DGENRE=Southern Rock
TTITLE0=Se Calienta
TTITLE1=En mis Manos
TTITLE2=Un Buen Momento
TTITLE3=Volando Alto
TTITLE4=Miro Atrás
TTITLE5=Dentro de la Esfera
TTITLE6=Perdido en la Ciudad
TTITLE7=Hermana
TTITLE8=Donde el Río Hierve
TTITLE9=No sabes hacerlo Bien
TTITLE10=Ron Vudú
TTITLE11=Como una Piedra
TTITLE12=Hasta Cuándo
EXTD=Primer disco de los Murciélagos...
EXTT0=
EXTT1=
EXTT2=
EXTT3=
EXTT4=
EXTT5=
EXTT6=
EXTT7=
EXTT8=
EXTT9=
EXTT10=
EXTT11=
EXTT12=
PLAYORDER=
